PathFileType	4	(X/Y/Z)	TVC_39_Cal_03_0_static_RCNL2025.trc
DataRate	CameraRate	NumFrames	NumMarkers	Units	OrigDataRate	OrigDataStartFrame	OrigNumFrames
100	100	7	27	mm	100	74	292
Frame#	Time	R_Shoulder			L_Shoulder			C7			J_Notch			R_Elbow			L_Elbow			R_Wrist			L_Wrist			R_Asis			L_Asis			R_Psis			L_Psis			Sacral			Thoracic			Sternum			R_Thigh_Lateral			R_Knee_Lateral			R_Shank_Lateral			R_Ankle_Lateral			R_Heel			R_Toe			L_Thigh_Lateral			L_Knee_Lateral			L_Shank_Lateral			L_Ankle_Lateral			L_Heel			L_Toe		
		X1	Y1	Z1	X2	Y2	Z2	X3	Y3	Z3	X4	Y4	Z4	X5	Y5	Z5	X6	Y6	Z6	X7	Y7	Z7	X8	Y8	Z8	X9	Y9	Z9	X10	Y10	Z10	X11	Y11	Z11	X12	Y12	Z12	X13	Y13	Z13	X14	Y14	Z14	X15	Y15	Z15	X16	Y16	Z16	X17	Y17	Z17	X18	Y18	Z18	X19	Y19	Z19	X20	Y20	Z20	X21	Y21	Z21	X22	Y22	Z22	X23	Y23	Z23	X24	Y24	Z24	X25	Y25	Z25	X26	Y26	Z26	X27	Y27	Z27
74	0.73000000	-190.844803	1478.542847	7.288067	-166.584213	1471.569580	-378.281525	-227.513336	1553.842651	-193.281128	-87.515709	1420.685181	-187.295059	-159.347458	1142.455444	91.106010	-178.776062	1158.014893	-486.384705	-92.161724	905.766235	20.057555	-151.079796	898.985138	-499.091370	-160.772232	941.481079	-29.414646	-121.793221	941.647400	-322.029510	-347.049286	987.422119	-141.633514	-332.115356	981.989929	-248.832169	-339.582321	984.706024	-195.232841	-330.854401	1227.188599	-200.605515	-51.201717	1260.434204	-167.914352	-225.099838	746.805115	44.589996	-227.944244	458.376770	-12.583200	-269.678772	303.500916	36.527840	-271.080505	77.572731	-58.117561	-311.886536	60.069439	-112.302719	-123.826042	46.928688	-49.316833	-199.502625	699.527100	-406.344177	-229.151047	474.103333	-346.452515	-246.778473	343.083679	-388.288849	-261.440216	76.131798	-298.872131	-298.916168	57.882038	-238.296234	-117.040749	43.567295	-319.642578
75	0.74000000	-191.034317	1478.519043	7.386318	-166.776382	1471.594971	-378.308594	-227.625626	1553.858643	-193.237335	-87.683113	1420.644287	-187.230148	-159.327774	1142.379150	91.036400	-178.846634	1158.066406	-486.362457	-92.188038	905.777954	20.027921	-151.305138	898.867340	-499.149643	-160.855179	941.433289	-29.388321	-121.929886	941.611206	-321.954529	-347.333252	987.442688	-141.559784	-332.128204	981.927673	-248.820023	-339.730728	984.685181	-195.189903	-331.019012	1227.174805	-200.625107	-51.267303	1260.446533	-167.825928	-225.270630	746.786133	44.551098	-227.905273	458.544769	-12.602455	-269.693665	303.521393	36.490257	-271.116516	77.559502	-58.222160	-311.853210	60.056965	-112.289368	-123.892395	46.805862	-49.296474	-199.562408	699.521729	-406.303986	-229.181213	474.091309	-346.488617	-246.785522	343.090302	-388.285400	-261.392151	76.101303	-298.839264	-299.048676	57.890099	-238.298828	-116.972893	43.593250	-319.590271
76	0.75000000	-191.187241	1478.515137	7.307312	-166.909927	1471.512939	-378.327606	-227.835495	1553.865601	-193.340088	-87.845009	1420.638428	-187.248428	-159.528870	1142.418213	91.082016	-178.990356	1158.004761	-486.353912	-92.287731	905.922699	19.864822	-151.422546	898.875977	-499.174225	-161.016769	941.458374	-29.385132	-122.048897	941.563171	-321.951813	-347.572998	987.583191	-141.503616	-332.260468	981.945801	-248.837143	-339.916733	984.764496	-195.170380	-331.033234	1227.194458	-200.592758	-51.543316	1260.448120	-167.820587	-225.365128	746.719971	44.547123	-227.731750	458.798767	-12.722769	-269.714355	303.493256	36.510689	-271.183319	77.573593	-58.165722	-311.913818	60.059193	-112.344070	-123.893219	46.765610	-49.315548	-199.635986	699.505981	-406.385651	-229.170395	474.081665	-346.475983	-246.863388	343.080505	-388.302734	-261.385345	76.018188	-298.948395	-299.075623	57.981644	-238.305695	-116.955383	43.622768	-319.598389
77	0.76000000	-191.347092	1478.528198	7.444454	-167.040314	1471.514038	-378.259583	-228.056122	1553.862549	-193.346939	-88.032486	1420.666382	-187.215088	-159.675583	1142.428467	91.053864	-179.162674	1158.062988	-486.341125	-92.330147	905.958496	19.780966	-151.617348	898.855469	-499.153107	-161.154694	941.462158	-29.392372	-122.046516	941.561462	-321.952209	-347.613068	987.610168	-141.512665	-332.345001	982.092346	-248.879272	-339.979034	984.851257	-195.195969	-331.187866	1227.123901	-200.602936	-51.661942	1260.472778	-167.970428	-225.344482	746.681763	44.563675	-227.518524	459.100311	-12.766562	-269.875061	303.441589	36.491184	-271.125122	77.576424	-58.096367	-311.892029	60.150524	-112.276985	-123.843376	46.798321	-49.322472	-199.604843	699.517517	-406.313873	-229.204941	474.112976	-346.544861	-246.934921	343.045227	-388.334900	-261.393555	76.024757	-298.937378	-299.059875	57.964249	-238.322342	-117.043930	43.483650	-319.498322
78	0.77000000	-191.463837	1478.549927	7.332532	-167.191605	1471.535889	-378.265747	-228.262436	1553.908325	-193.401978	-88.173988	1420.662720	-187.224670	-160.002625	1142.553589	91.405655	-179.416306	1157.979858	-486.423615	-92.385509	906.103699	19.871945	-151.857010	898.837769	-499.104645	-161.168442	941.484131	-29.411751	-122.167000	941.524841	-321.958435	-347.613434	987.518005	-141.622803	-332.367279	982.031372	-248.881104	-339.990356	984.774689	-195.251953	-331.289368	1227.127930	-200.547409	-51.744747	1260.475952	-167.854340	-225.380264	746.754028	44.495789	-227.372437	459.345551	-12.900887	-269.750275	303.665710	36.539627	-271.120697	77.692924	-58.175926	-311.846191	60.139755	-112.247208	-123.837852	46.824764	-49.305481	-199.572647	699.531372	-406.382507	-229.224091	474.118622	-346.556213	-247.057327	342.855438	-388.418030	-261.369446	76.038864	-298.891754	-299.029144	57.867275	-238.346024	-117.266327	43.193150	-319.572968
79	0.78000000	-191.668961	1478.529175	7.408228	-167.353180	1471.515381	-378.362762	-228.394928	1553.917236	-193.437057	-88.398468	1420.592041	-186.911194	-160.086746	1142.483154	91.197235	-179.667557	1157.970093	-486.381531	-92.494640	906.081818	19.865677	-152.096924	898.763580	-499.067596	-161.278519	941.440186	-29.322908	-122.269188	941.517944	-321.916382	-347.482574	987.386963	-141.714584	-332.432587	982.047363	-248.845856	-339.957581	984.717163	-195.280220	-331.362305	1227.120483	-200.570755	-51.931789	1260.471436	-167.786545	-225.565720	746.795288	44.642467	-227.283310	459.451721	-12.879474	-269.738159	303.658112	36.550343	-271.099091	77.679222	-58.074535	-311.843994	60.184254	-112.225555	-123.851585	46.853836	-49.289978	-199.582840	699.486389	-406.337006	-229.207153	474.061951	-346.547485	-246.941574	343.011169	-388.376526	-261.403442	76.056175	-298.928436	-299.016266	57.873554	-238.349777	-117.268143	43.120621	-319.545166
80	0.79000000	-191.934647	1478.558350	7.387740	-167.706711	1471.337891	-378.436493	-228.575348	1553.874146	-193.486374	-88.495216	1420.698853	-187.242020	-159.657700	1142.241821	90.970604	-179.807022	1157.991211	-486.321747	-92.650475	906.069641	19.920641	-152.398560	898.759918	-498.962952	-161.432281	941.386597	-29.362902	-122.345039	941.538757	-321.987610	-347.419434	987.260071	-141.887787	-332.530945	981.973145	-248.864975	-339.975189	984.616608	-195.376381	-331.503296	1227.072021	-200.612213	-52.046604	1260.489136	-167.889435	-225.700760	746.845581	44.587337	-227.319122	459.460052	-12.924471	-269.806183	303.460602	36.531757	-271.106598	77.639839	-58.099159	-311.867767	60.162659	-112.199997	-123.851585	46.832195	-49.303947	-199.580246	699.448242	-406.389771	-229.214157	474.090363	-346.547058	-246.977570	343.104553	-388.520691	-261.368866	76.051285	-298.918671	-299.102966	57.915470	-238.274384	-117.089523	43.454124	-319.453033
